{
	"asset":{
		"generator":"Khronos glTF Blender I/O v3.6.27",
		"version":"2.0"
	},
	"scene":0,
	"scenes":[
		{
			"name":"Scene",
			"nodes":[
				0
			]
		}
	],
	"nodes":[
		{
			"mesh":0,
			"name":"ChestArmor",
			"rotation":[
				0.26849308609962463,
				-0.6918025612831116,
				0.6376405358314514,
				0.20672498643398285
			],
			"scale":[
				0.03167858347296715,
				0.030238430947065353,
				0.030309980735182762
			],
			"translation":[
				0.026163091883063316,
				-0.2204185277223587,
				0.02367204986512661
			]
		}
	],
	"meshes":[
		{
			"name":"ChestArmor",
			"primitives":[
				{
					"attributes":{
						"POSITION":0,
						"NORMAL":1
					},
					"indices":2
				}
			]
		}
	],
	"accessors":[
		{
			"bufferView":0,
			"componentType":5126,
			"count":51074,
			"max":[
				0.35309261083602905,
				5.70990514755249,
				-15.145917892456055
			],
			"min":[
				-3.9928946495056152,
				-1.4915823936462402,
				-23.05561637878418
			],
			"type":"VEC3"
		},
		{
			"bufferView":1,
			"componentType":5126,
			"count":51074,
			"type":"VEC3"
		},
		{
			"bufferView":2,
			"componentType":5123,
			"count":306432,
			"type":"SCALAR"
		}
	],
	"bufferViews":[
		{
			"buffer":0,
			"byteLength":612888,
			"byteOffset":0,
			"target":34962
		},
		{
			"buffer":0,
			"byteLength":612888,
			"byteOffset":612888,
			"target":34962
		},
		{
			"buffer":0,
			"byteLength":612864,
			"byteOffset":1225776,
			"target":34963
		}
	],
	"buffers":[
		{
			"byteLength":1838640,
			"uri":"chestarmor.bin"
		}
	]
}
