{
	"asset":{
		"generator":"Khronos glTF Blender I/O v3.6.27",
		"version":"2.0"
	},
	"scene":0,
	"scenes":[
		{
			"name":"Scene",
			"nodes":[
				0
			]
		}
	],
	"nodes":[
		{
			"mesh":0,
			"name":"Helmet",
			"rotation":[
				0.06445498764514923,
				-0.7832978367805481,
				-0.04567916318774223,
				0.6166064143180847
			],
			"scale":[
				1.8351020812988281,
				2.0094430446624756,
				1.8730108737945557
			]
		}
	],
	"meshes":[
		{
			"name":"Helmet",
			"primitives":[
				{
					"attributes":{
						"POSITION":0,
						"NORMAL":1,
						"TEXCOORD_0":2
					},
					"indices":3
				}
			]
		}
	],
	"accessors":[
		{
			"bufferView":0,
			"componentType":5126,
			"count":127839,
			"max":[
				0.9512643218040466,
				1.7518084049224854,
				0.8238626718521118
			],
			"min":[
				-1.018320918083191,
				-0.9464200735092163,
				-0.8560397624969482
			],
			"type":"VEC3"
		},
		{
			"bufferView":1,
			"componentType":5126,
			"count":127839,
			"type":"VEC3"
		},
		{
			"bufferView":2,
			"componentType":5126,
			"count":127839,
			"type":"VEC2"
		},
		{
			"bufferView":3,
			"componentType":5125,
			"count":184320,
			"type":"SCALAR"
		}
	],
	"bufferViews":[
		{
			"buffer":0,
			"byteLength":1534068,
			"byteOffset":0,
			"target":34962
		},
		{
			"buffer":0,
			"byteLength":1534068,
			"byteOffset":1534068,
			"target":34962
		},
		{
			"buffer":0,
			"byteLength":1022712,
			"byteOffset":3068136,
			"target":34962
		},
		{
			"buffer":0,
			"byteLength":737280,
			"byteOffset":4090848,
			"target":34963
		}
	],
	"buffers":[
		{
			"byteLength":4828128,
			"uri":"Helmet.bin"
		}
	]
}
