{
	"asset":{
		"generator":"Khronos glTF Blender I/O v3.6.27",
		"version":"2.0"
	},
	"scene":0,
	"scenes":[
		{
			"name":"Scene",
			"nodes":[
				0
			]
		}
	],
	"nodes":[
		{
			"mesh":0,
			"name":"SwordArmForearm",
			"rotation":[
				-0.40669500827789307,
				0.7047997117042542,
				-0.21958832442760468,
				0.5381797552108765
			],
			"scale":[
				-0.03427769988775253,
				-0.021008344367146492,
				-0.022671036422252655
			],
			"translation":[
				-0.06823895871639252,
				0.31945428252220154,
				-0.14183807373046875
			]
		}
	],
	"meshes":[
		{
			"name":"Mesh.001",
			"primitives":[
				{
					"attributes":{
						"POSITION":0,
						"NORMAL":1
					},
					"indices":2
				}
			]
		}
	],
	"accessors":[
		{
			"bufferView":0,
			"componentType":5126,
			"count":69122,
			"max":[
				2.4991495609283447,
				1.015903115272522,
				1.356124758720398
			],
			"min":[
				-1.9910541772842407,
				-1.3047218322753906,
				-1.2662553787231445
			],
			"type":"VEC3"
		},
		{
			"bufferView":1,
			"componentType":5126,
			"count":69122,
			"type":"VEC3"
		},
		{
			"bufferView":2,
			"componentType":5125,
			"count":414720,
			"type":"SCALAR"
		}
	],
	"bufferViews":[
		{
			"buffer":0,
			"byteLength":829464,
			"byteOffset":0,
			"target":34962
		},
		{
			"buffer":0,
			"byteLength":829464,
			"byteOffset":829464,
			"target":34962
		},
		{
			"buffer":0,
			"byteLength":1658880,
			"byteOffset":1658928,
			"target":34963
		}
	],
	"buffers":[
		{
			"byteLength":3317808,
			"uri":"SwordArmForearm.bin"
		}
	]
}
