{
	"asset":{
		"generator":"Khronos glTF Blender I/O v3.6.27",
		"version":"2.0"
	},
	"scene":0,
	"scenes":[
		{
			"name":"Scene",
			"nodes":[
				0
			]
		}
	],
	"nodes":[
		{
			"mesh":0,
			"name":"SwordArm",
			"scale":[
				0.03032761812210083,
				0.03032761812210083,
				0.03032761812210083
			],
			"translation":[
				0.20927965641021729,
				-0.16435378789901733,
				0.5222881436347961
			]
		}
	],
	"meshes":[
		{
			"name":"SwordArm",
			"primitives":[
				{
					"attributes":{
						"POSITION":0,
						"NORMAL":1
					},
					"indices":2
				}
			]
		}
	],
	"accessors":[
		{
			"bufferView":0,
			"componentType":5126,
			"count":18884,
			"max":[
				-0.45427000522613525,
				15.055458068847656,
				-20.30541229248047
			],
			"min":[
				-3.8965370655059814,
				3.106781005859375,
				-23.301700592041016
			],
			"type":"VEC3"
		},
		{
			"bufferView":1,
			"componentType":5126,
			"count":18884,
			"type":"VEC3"
		},
		{
			"bufferView":2,
			"componentType":5123,
			"count":113280,
			"type":"SCALAR"
		}
	],
	"bufferViews":[
		{
			"buffer":0,
			"byteLength":226608,
			"byteOffset":0,
			"target":34962
		},
		{
			"buffer":0,
			"byteLength":226608,
			"byteOffset":226608,
			"target":34962
		},
		{
			"buffer":0,
			"byteLength":226560,
			"byteOffset":453216,
			"target":34963
		}
	],
	"buffers":[
		{
			"byteLength":679776,
			"uri":"swordarm.bin"
		}
	]
}
