{
	"asset":{
		"generator":"Khronos glTF Blender I/O v3.6.27",
		"version":"2.0"
	},
	"scene":0,
	"scenes":[
		{
			"name":"Scene",
			"nodes":[
				0
			]
		}
	],
	"nodes":[
		{
			"mesh":0,
			"name":"SwordArmShoulder",
			"rotation":[
				-0.016995888203382492,
				-0.6209370493888855,
				0.0842764750123024,
				0.7791314125061035
			],
			"scale":[
				0.015543646179139614,
				0.028321916237473488,
				0.03963509947061539
			],
			"translation":[
				-0.05467475205659866,
				0.41215282678604126,
				-0.027843410149216652
			]
		}
	],
	"meshes":[
		{
			"name":"Mesh",
			"primitives":[
				{
					"attributes":{
						"POSITION":0,
						"NORMAL":1
					},
					"indices":2
				}
			]
		}
	],
	"accessors":[
		{
			"bufferView":0,
			"componentType":5126,
			"count":69122,
			"max":[
				2.2690842151641846,
				1.2819257974624634,
				1.18241548538208
			],
			"min":[
				-3.370814323425293,
				-1.21610689163208,
				-1.18241548538208
			],
			"type":"VEC3"
		},
		{
			"bufferView":1,
			"componentType":5126,
			"count":69122,
			"type":"VEC3"
		},
		{
			"bufferView":2,
			"componentType":5125,
			"count":414720,
			"type":"SCALAR"
		}
	],
	"bufferViews":[
		{
			"buffer":0,
			"byteLength":829464,
			"byteOffset":0,
			"target":34962
		},
		{
			"buffer":0,
			"byteLength":829464,
			"byteOffset":829464,
			"target":34962
		},
		{
			"buffer":0,
			"byteLength":1658880,
			"byteOffset":1658928,
			"target":34963
		}
	],
	"buffers":[
		{
			"byteLength":3317808,
			"uri":"SwordArmShoulder.bin"
		}
	]
}
