{
	"asset":{
		"generator":"Khronos glTF Blender I/O v3.6.27",
		"version":"2.0"
	},
	"scene":0,
	"scenes":[
		{
			"name":"Scene",
			"nodes":[
				0
			]
		}
	],
	"nodes":[
		{
			"mesh":0,
			"name":"SwordArmBicep",
			"rotation":[
				-0.06183265894651413,
				-0.6329792737960815,
				0.3091992139816284,
				0.7070429921150208
			],
			"scale":[
				0.0223365630954504,
				0.02509654127061367,
				0.025842715054750443
			],
			"translation":[
				-0.062428068369627,
				0.38731953501701355,
				-0.08395501226186752
			]
		}
	],
	"meshes":[
		{
			"name":"Mesh.002",
			"primitives":[
				{
					"attributes":{
						"POSITION":0,
						"NORMAL":1
					},
					"indices":2
				}
			]
		}
	],
	"accessors":[
		{
			"bufferView":0,
			"componentType":5126,
			"count":69122,
			"max":[
				2.120290517807007,
				1.049477458000183,
				1.0714980363845825
			],
			"min":[
				-2.29495906829834,
				-1.10513174533844,
				-1.1963591575622559
			],
			"type":"VEC3"
		},
		{
			"bufferView":1,
			"componentType":5126,
			"count":69122,
			"type":"VEC3"
		},
		{
			"bufferView":2,
			"componentType":5125,
			"count":414720,
			"type":"SCALAR"
		}
	],
	"bufferViews":[
		{
			"buffer":0,
			"byteLength":829464,
			"byteOffset":0,
			"target":34962
		},
		{
			"buffer":0,
			"byteLength":829464,
			"byteOffset":829464,
			"target":34962
		},
		{
			"buffer":0,
			"byteLength":1658880,
			"byteOffset":1658928,
			"target":34963
		}
	],
	"buffers":[
		{
			"byteLength":3317808,
			"uri":"SwordArmBicep.bin"
		}
	]
}
