{
	"asset":{
		"generator":"Khronos glTF Blender I/O v3.6.27",
		"version":"2.0"
	},
	"scene":0,
	"scenes":[
		{
			"name":"Scene",
			"nodes":[
				0
			]
		}
	],
	"nodes":[
		{
			"mesh":0,
			"name":"Cube",
			"scale":[
				0.26742497086524963,
				1.532634973526001,
				0.35602179169654846
			]
		}
	],
	"meshes":[
		{
			"name":"Cube",
			"primitives":[
				{
					"attributes":{
						"COLOR_0":0,
						"POSITION":1,
						"NORMAL":2,
						"TEXCOORD_0":3
					},
					"indices":4
				}
			]
		}
	],
	"accessors":[
		{
			"bufferView":0,
			"componentType":5123,
			"count":495641,
			"normalized":true,
			"type":"VEC4"
		},
		{
			"bufferView":1,
			"componentType":5126,
			"count":495641,
			"max":[
				1.2606509923934937,
				6.580024242401123,
				5.476136207580566
			],
			"min":[
				-1.2606515884399414,
				-3.006268262863159,
				-5.0990424156188965
			],
			"type":"VEC3"
		},
		{
			"bufferView":2,
			"componentType":5126,
			"count":495641,
			"type":"VEC3"
		},
		{
			"bufferView":3,
			"componentType":5126,
			"count":495641,
			"type":"VEC2"
		},
		{
			"bufferView":4,
			"componentType":5125,
			"count":709830,
			"type":"SCALAR"
		}
	],
	"bufferViews":[
		{
			"buffer":0,
			"byteLength":3965128,
			"byteOffset":0,
			"target":34962
		},
		{
			"buffer":0,
			"byteLength":5947692,
			"byteOffset":3965128,
			"target":34962
		},
		{
			"buffer":0,
			"byteLength":5947692,
			"byteOffset":9912820,
			"target":34962
		},
		{
			"buffer":0,
			"byteLength":3965128,
			"byteOffset":15860512,
			"target":34962
		},
		{
			"buffer":0,
			"byteLength":2839320,
			"byteOffset":19825640,
			"target":34963
		}
	],
	"buffers":[
		{
			"byteLength":22664960,
			"uri":"sword_iron.bin"
		}
	]
}
