{
	"asset":{
		"generator":"Khronos glTF Blender I/O v3.6.27",
		"version":"2.0"
	},
	"scene":0,
	"scenes":[
		{
			"name":"Scene",
			"nodes":[
				0
			]
		}
	],
	"nodes":[
		{
			"mesh":0,
			"name":"UpperSwordArmAmr",
			"rotation":[
				-0.9085686802864075,
				0.29131269454956055,
				-0.24555832147598267,
				0.17129221558570862
			],
			"scale":[
				1.6391395330429077,
				1.4367378950119019,
				1.911025881767273
			],
			"translation":[
				-0.05093250051140785,
				0.4436255395412445,
				-0.06923943758010864
			]
		}
	],
	"meshes":[
		{
			"name":"UpperSwordArmAmr",
			"primitives":[
				{
					"attributes":{
						"POSITION":0,
						"NORMAL":1
					},
					"indices":2
				}
			]
		}
	],
	"accessors":[
		{
			"bufferView":0,
			"componentType":5126,
			"count":10435,
			"max":[
				0.2424662560224533,
				0.48127108812332153,
				0.21986830234527588
			],
			"min":[
				-0.23553597927093506,
				-0.3360920548439026,
				-0.2117472141981125
			],
			"type":"VEC3"
		},
		{
			"bufferView":1,
			"componentType":5126,
			"count":10435,
			"type":"VEC3"
		},
		{
			"bufferView":2,
			"componentType":5123,
			"count":62211,
			"type":"SCALAR"
		}
	],
	"bufferViews":[
		{
			"buffer":0,
			"byteLength":125220,
			"byteOffset":0,
			"target":34962
		},
		{
			"buffer":0,
			"byteLength":125220,
			"byteOffset":125220,
			"target":34962
		},
		{
			"buffer":0,
			"byteLength":124422,
			"byteOffset":250440,
			"target":34963
		}
	],
	"buffers":[
		{
			"byteLength":374864,
			"uri":"SwordArmAmr.bin"
		}
	]
}
