{
	"asset":{
		"generator":"Khronos glTF Blender I/O v3.6.27",
		"version":"2.0"
	},
	"scene":0,
	"scenes":[
		{
			"name":"Scene",
			"nodes":[
				0
			]
		}
	],
	"nodes":[
		{
			"mesh":0,
			"name":"Cube",
			"scale":[
				0.11764203011989594,
				1.7338746786117554,
				0.19663108885288239
			]
		}
	],
	"meshes":[
		{
			"name":"Cylinder.002",
			"primitives":[
				{
					"attributes":{
						"POSITION":0,
						"NORMAL":1,
						"TEXCOORD_0":2
					},
					"indices":3
				}
			]
		}
	],
	"accessors":[
		{
			"bufferView":0,
			"componentType":5126,
			"count":413698,
			"max":[
				2.6629812717437744,
				5.9102020263671875,
				7.59843111038208
			],
			"min":[
				-1.0974626541137695,
				-3.117462158203125,
				-7.963366985321045
			],
			"type":"VEC3"
		},
		{
			"bufferView":1,
			"componentType":5126,
			"count":413698,
			"type":"VEC3"
		},
		{
			"bufferView":2,
			"componentType":5126,
			"count":413698,
			"type":"VEC2"
		},
		{
			"bufferView":3,
			"componentType":5125,
			"count":1135074,
			"type":"SCALAR"
		}
	],
	"bufferViews":[
		{
			"buffer":0,
			"byteLength":4964376,
			"byteOffset":0,
			"target":34962
		},
		{
			"buffer":0,
			"byteLength":4964376,
			"byteOffset":4964376,
			"target":34962
		},
		{
			"buffer":0,
			"byteLength":3309584,
			"byteOffset":9928752,
			"target":34962
		},
		{
			"buffer":0,
			"byteLength":4540296,
			"byteOffset":13238336,
			"target":34963
		}
	],
	"buffers":[
		{
			"byteLength":17778632,
			"uri":"TestStick2.bin"
		}
	]
}
