{
	"asset":{
		"generator":"Khronos glTF Blender I/O v3.6.27",
		"version":"2.0"
	},
	"scene":0,
	"scenes":[
		{
			"name":"Scene",
			"nodes":[
				0
			]
		}
	],
	"nodes":[
		{
			"mesh":0,
			"name":"Cube",
			"scale":[
				0.18019820749759674,
				0.28147390484809875,
				0.49686235189437866
			]
		}
	],
	"meshes":[
		{
			"name":"Mesh.001",
			"primitives":[
				{
					"attributes":{
						"POSITION":0,
						"NORMAL":1,
						"TEXCOORD_0":2
					},
					"indices":3
				}
			]
		}
	],
	"accessors":[
		{
			"bufferView":0,
			"componentType":5126,
			"count":2369278,
			"max":[
				1.3999991416931152,
				30.215476989746094,
				3.8058645725250244
			],
			"min":[
				-1.1406216621398926,
				-17.167871475219727,
				-3.9341983795166016
			],
			"type":"VEC3"
		},
		{
			"bufferView":1,
			"componentType":5126,
			"count":2369278,
			"type":"VEC3"
		},
		{
			"bufferView":2,
			"componentType":5126,
			"count":2369278,
			"type":"VEC2"
		},
		{
			"bufferView":3,
			"componentType":5125,
			"count":4102626,
			"type":"SCALAR"
		}
	],
	"bufferViews":[
		{
			"buffer":0,
			"byteLength":28431336,
			"byteOffset":0,
			"target":34962
		},
		{
			"buffer":0,
			"byteLength":28431336,
			"byteOffset":28431336,
			"target":34962
		},
		{
			"buffer":0,
			"byteLength":18954224,
			"byteOffset":56862672,
			"target":34962
		},
		{
			"buffer":0,
			"byteLength":16410504,
			"byteOffset":75816896,
			"target":34963
		}
	],
	"buffers":[
		{
			"byteLength":92227400,
			"uri":"TestStick.bin"
		}
	]
}
