{
	"asset":{
		"generator":"Khronos glTF Blender I/O v3.6.27",
		"version":"2.0"
	},
	"scene":0,
	"scenes":[
		{
			"name":"Scene",
			"nodes":[
				0,
				1,
				2,
				3
			]
		}
	],
	"nodes":[
		{
			"mesh":0,
			"name":"Cylinder.001",
			"rotation":[
				-0.0029460275545716286,
				2.0946888980688527e-05,
				-0.00017184129683300853,
				0.9999956488609314
			],
			"scale":[
				0.2006579488515854,
				3.529639482498169,
				0.5585770010948181
			],
			"translation":[
				0,
				8.33682632446289,
				0.17031241953372955
			]
		},
		{
			"mesh":1,
			"name":"Cylinder",
			"scale":[
				0.20392195880413055,
				1.1923632621765137,
				0.20392195880413055
			],
			"translation":[
				0,
				3.262099266052246,
				0
			]
		},
		{
			"mesh":2,
			"name":"Mball.001",
			"rotation":[
				0,
				0.686896026134491,
				0,
				0.7267557382583618
			],
			"scale":[
				0.342686265707016,
				0.3423575162887573,
				0.43349266052246094
			],
			"translation":[
				0,
				4.123889923095703,
				-0.012240774929523468
			]
		},
		{
			"mesh":3,
			"name":"Icosphere",
			"scale":[
				0.2639322280883789,
				0.2639322280883789,
				0.2639322280883789
			],
			"translation":[
				0,
				1.9181495904922485,
				0
			]
		}
	],
	"meshes":[
		{
			"name":"Cylinder.001",
			"primitives":[
				{
					"attributes":{
						"POSITION":0,
						"NORMAL":1,
						"TEXCOORD_0":2
					},
					"indices":3
				}
			]
		},
		{
			"name":"Cylinder.002",
			"primitives":[
				{
					"attributes":{
						"POSITION":4,
						"NORMAL":5,
						"TEXCOORD_0":6
					},
					"indices":7
				}
			]
		},
		{
			"name":"Mesh",
			"primitives":[
				{
					"attributes":{
						"POSITION":8,
						"NORMAL":9
					},
					"indices":10
				}
			]
		},
		{
			"name":"Icosphere",
			"primitives":[
				{
					"attributes":{
						"POSITION":11,
						"NORMAL":12,
						"TEXCOORD_0":13
					},
					"indices":14
				}
			]
		}
	],
	"accessors":[
		{
			"bufferView":0,
			"componentType":5126,
			"count":8704,
			"max":[
				0.723782479763031,
				1.4550962448120117,
				0.7230092287063599
			],
			"min":[
				-1.2567377090454102,
				-1.2228870391845703,
				-1.2824757099151611
			],
			"type":"VEC3"
		},
		{
			"bufferView":1,
			"componentType":5126,
			"count":8704,
			"type":"VEC3"
		},
		{
			"bufferView":2,
			"componentType":5126,
			"count":8704,
			"type":"VEC2"
		},
		{
			"bufferView":3,
			"componentType":5123,
			"count":10734,
			"type":"SCALAR"
		},
		{
			"bufferView":4,
			"componentType":5126,
			"count":133104,
			"max":[
				1,
				1,
				1
			],
			"min":[
				-1,
				-1,
				-1
			],
			"type":"VEC3"
		},
		{
			"bufferView":5,
			"componentType":5126,
			"count":133104,
			"type":"VEC3"
		},
		{
			"bufferView":6,
			"componentType":5126,
			"count":133104,
			"type":"VEC2"
		},
		{
			"bufferView":7,
			"componentType":5125,
			"count":202740,
			"type":"SCALAR"
		},
		{
			"bufferView":8,
			"componentType":5126,
			"count":276482,
			"max":[
				3.043896436691284,
				3.1384618282318115,
				0.7784591317176819
			],
			"min":[
				-3.221795082092285,
				-0.3925492465496063,
				-0.9350812435150146
			],
			"type":"VEC3"
		},
		{
			"bufferView":9,
			"componentType":5126,
			"count":276482,
			"type":"VEC3"
		},
		{
			"bufferView":10,
			"componentType":5125,
			"count":1658880,
			"type":"SCALAR"
		},
		{
			"bufferView":11,
			"componentType":5126,
			"count":240,
			"max":[
				0.9510578513145447,
				1,
				0.9999999403953552
			],
			"min":[
				-0.9510578513145447,
				-1,
				-0.9999999403953552
			],
			"type":"VEC3"
		},
		{
			"bufferView":12,
			"componentType":5126,
			"count":240,
			"type":"VEC3"
		},
		{
			"bufferView":13,
			"componentType":5126,
			"count":240,
			"type":"VEC2"
		},
		{
			"bufferView":14,
			"componentType":5123,
			"count":240,
			"type":"SCALAR"
		}
	],
	"bufferViews":[
		{
			"buffer":0,
			"byteLength":104448,
			"byteOffset":0,
			"target":34962
		},
		{
			"buffer":0,
			"byteLength":104448,
			"byteOffset":104448,
			"target":34962
		},
		{
			"buffer":0,
			"byteLength":69632,
			"byteOffset":208896,
			"target":34962
		},
		{
			"buffer":0,
			"byteLength":21468,
			"byteOffset":278528,
			"target":34963
		},
		{
			"buffer":0,
			"byteLength":1597248,
			"byteOffset":299996,
			"target":34962
		},
		{
			"buffer":0,
			"byteLength":1597248,
			"byteOffset":1897244,
			"target":34962
		},
		{
			"buffer":0,
			"byteLength":1064832,
			"byteOffset":3494492,
			"target":34962
		},
		{
			"buffer":0,
			"byteLength":810960,
			"byteOffset":4559324,
			"target":34963
		},
		{
			"buffer":0,
			"byteLength":3317784,
			"byteOffset":5370284,
			"target":34962
		},
		{
			"buffer":0,
			"byteLength":3317784,
			"byteOffset":8688068,
			"target":34962
		},
		{
			"buffer":0,
			"byteLength":6635520,
			"byteOffset":12005852,
			"target":34963
		},
		{
			"buffer":0,
			"byteLength":2880,
			"byteOffset":18641372,
			"target":34962
		},
		{
			"buffer":0,
			"byteLength":2880,
			"byteOffset":18644252,
			"target":34962
		},
		{
			"buffer":0,
			"byteLength":1920,
			"byteOffset":18647132,
			"target":34962
		},
		{
			"buffer":0,
			"byteLength":480,
			"byteOffset":18649052,
			"target":34963
		}
	],
	"buffers":[
		{
			"byteLength":18649532,
			"uri":"TestStick3.bin"
		}
	]
}
