{
	"asset":{
		"generator":"Khronos glTF Blender I/O v3.6.27",
		"version":"2.0"
	},
	"scene":0,
	"scenes":[
		{
			"name":"Scene",
			"nodes":[
				0
			]
		}
	],
	"nodes":[
		{
			"mesh":0,
			"name":"Shield",
			"scale":[
				0.4076882302761078,
				5.369499206542969,
				5.369499206542969
			]
		}
	],
	"meshes":[
		{
			"name":"Sphere.001",
			"primitives":[
				{
					"attributes":{
						"POSITION":0,
						"NORMAL":1,
						"TEXCOORD_0":2
					},
					"indices":3
				}
			]
		}
	],
	"accessors":[
		{
			"bufferView":0,
			"componentType":5126,
			"count":111486,
			"max":[
				0.5284571051597595,
				1.0107958316802979,
				0.9852547645568848
			],
			"min":[
				-1.77793550491333,
				-0.9892042279243469,
				-1.014744520187378
			],
			"type":"VEC3"
		},
		{
			"bufferView":1,
			"componentType":5126,
			"count":111486,
			"type":"VEC3"
		},
		{
			"bufferView":2,
			"componentType":5126,
			"count":111486,
			"type":"VEC2"
		},
		{
			"bufferView":3,
			"componentType":5125,
			"count":184320,
			"type":"SCALAR"
		}
	],
	"bufferViews":[
		{
			"buffer":0,
			"byteLength":1337832,
			"byteOffset":0,
			"target":34962
		},
		{
			"buffer":0,
			"byteLength":1337832,
			"byteOffset":1337832,
			"target":34962
		},
		{
			"buffer":0,
			"byteLength":891888,
			"byteOffset":2675664,
			"target":34962
		},
		{
			"buffer":0,
			"byteLength":737280,
			"byteOffset":3567552,
			"target":34963
		}
	],
	"buffers":[
		{
			"byteLength":4304832,
			"uri":"TestShield_1.bin"
		}
	]
}
