{
	"asset":{
		"generator":"Khronos glTF Blender I/O v3.6.27",
		"version":"2.0"
	},
	"scene":0,
	"scenes":[
		{
			"name":"Scene",
			"nodes":[
				0
			]
		}
	],
	"nodes":[
		{
			"mesh":0,
			"name":"Shield",
			"scale":[
				0.04665711522102356,
				0.6145025491714478,
				0.6145025491714478
			]
		}
	],
	"meshes":[
		{
			"name":"Sphere",
			"primitives":[
				{
					"attributes":{
						"POSITION":0,
						"NORMAL":1,
						"TEXCOORD_0":2
					},
					"indices":3
				}
			]
		}
	],
	"accessors":[
		{
			"bufferView":0,
			"componentType":5126,
			"count":111486,
			"max":[
				1.3256077766418457,
				1,
				0.9999993443489075
			],
			"min":[
				-0.9807848334312439,
				-1,
				-1
			],
			"type":"VEC3"
		},
		{
			"bufferView":1,
			"componentType":5126,
			"count":111486,
			"type":"VEC3"
		},
		{
			"bufferView":2,
			"componentType":5126,
			"count":111486,
			"type":"VEC2"
		},
		{
			"bufferView":3,
			"componentType":5125,
			"count":184320,
			"type":"SCALAR"
		}
	],
	"bufferViews":[
		{
			"buffer":0,
			"byteLength":1337832,
			"byteOffset":0,
			"target":34962
		},
		{
			"buffer":0,
			"byteLength":1337832,
			"byteOffset":1337832,
			"target":34962
		},
		{
			"buffer":0,
			"byteLength":891888,
			"byteOffset":2675664,
			"target":34962
		},
		{
			"buffer":0,
			"byteLength":737280,
			"byteOffset":3567552,
			"target":34963
		}
	],
	"buffers":[
		{
			"byteLength":4304832,
			"uri":"TestShield.bin"
		}
	]
}
